<?xml version="1.0" encoding="UTF-8"?>
<svg width="512px" height="512px" viewBox="0 0 512 512" version="1.1" xmlns="http://www.w3.org/2000/svg" xmlns:xlink="http://www.w3.org/1999/xlink">
    <!-- Generator: Sketch 60.1 (88133) - https://sketch.com -->
    <title>avatar-name</title>
    <desc>Created with Sketch.</desc>
    <defs>
        <polygon id="path-1" points="0 0.86353719 150.853871 0.86353719 150.853871 147.515636 0 147.515636"></polygon>
        <polygon id="path-3" points="0.361612903 0.86353719 151.214258 0.86353719 151.214258 147.515636 0.361612903 147.515636"></polygon>
        <polygon id="path-5" points="0.342222222 0.0802205882 76.6088889 0.0802205882 76.6088889 81.1761029 0.342222222 81.1761029"></polygon>
    </defs>
    <g id="avatars" stroke="none" stroke-width="1" fill="none" fill-rule="evenodd">
        <g id="avatar-name">
            <rect id="Invisible-512-BG" fill-opacity="0.01" fill="#FFFFFF" x="0" y="0" width="512" height="512"></rect>
            <g id="chucken" transform="translate(38.000000, 37.000000)">
                <path d="M285.178288,401.985591 C285.195471,400.204291 285.096054,398.511813 284.816216,396.967777 C281.506017,378.733792 272.376889,377.150821 268.265222,361.934338 C267.090635,357.582078 286.939554,361.934338 286.939554,361.934338 C293.435988,370.743496 298.8953,387.115877 300.720389,401.823765 C335.685514,403.438372 335.514911,419.252272 327.8488,424.215332 C319.235164,429.792843 311.414405,420.403302 301.16224,416.436748 C300.350953,425.562257 297.055482,432 290.194522,432 C283.069678,432 282.937122,424.994042 283.812232,416.616824 C271.488278,420.902164 258.867301,430.74798 254.559256,423.559512 C249.647348,415.358721 255.419638,403.973735 285.178288,401.986807" id="Path" fill="#FFCA05" fill-rule="nonzero"></path>
                <path d="M285.701908,429.671922 C285.701908,435.119924 290.292084,439 291.398165,439 C292.503027,439 297.094423,435.119924 297.094423,429.671922 C297.094423,426.633613 294.542021,425.505236 291.399385,425.505236 C288.250651,425.505236 285.701908,426.633613 285.701908,429.671922 M248.104901,429.49249 C248.602455,430.216241 253.927986,431.048373 258.49865,427.989592 C261.047393,426.283178 260.846177,423.978254 259.425466,421.916587 C258.008414,419.852512 255.913322,418.815658 253.36336,420.520868 C248.793915,423.579649 247.606128,428.76633 248.10612,429.49249 M325.295227,420.542544 C323.947686,422.829405 323.740372,425.359522 326.128141,427.175523 C330.406127,430.426983 335.421907,429.405784 335.89629,428.601349 C336.371893,427.796913 335.290201,422.139373 331.012216,418.887912 C328.624446,417.070707 326.643987,418.252071 325.295227,420.542544" id="Shape" fill="#FFF584" fill-rule="nonzero"></path>
                <path d="M149.821434,401.985591 C149.805478,400.204291 149.904896,398.511813 150.184737,396.967777 C153.494964,378.733792 162.624171,377.150821 166.734646,361.934338 C167.91047,357.582078 148.060153,361.934338 148.060153,361.934338 C141.56489,370.743496 136.104304,387.115877 134.280426,401.823765 C99.3149989,403.438372 99.4843765,419.252272 107.151781,424.215332 C115.764264,429.792843 123.58509,420.403302 133.838572,416.436748 C134.648638,425.562257 137.944137,432 144.805157,432 C151.930063,432 152.062619,424.994042 151.188729,416.616824 C163.511562,420.902164 176.132648,430.74798 180.44073,423.559512 C185.352681,415.358721 179.580341,403.973735 149.821434,401.986807" id="Path" fill="#FFCA05" fill-rule="nonzero"></path>
                <path d="M143.602246,425.503825 C140.45598,425.503825 137.904823,426.633323 137.904823,429.670203 C137.904823,435.120211 142.496175,439 143.602246,439 C144.708317,439 149.29723,435.120211 149.29723,429.671407 C149.29723,426.633323 146.748511,425.505029 143.602246,425.505029 M181.636691,420.521029 C179.085533,418.814741 176.990462,419.852723 175.570984,421.916645 C174.153945,423.97816 173.951511,426.282913 176.50023,427.989202 C181.07329,431.047757 186.396332,430.21689 186.893881,429.490784 C187.393868,428.765882 186.206092,423.580788 181.636691,420.521029 M103.988571,418.88699 C99.709406,422.140618 98.6289444,427.796537 99.1033231,428.600913 C99.5789214,429.405289 104.593434,430.427617 108.871379,427.175193 C111.260346,425.36053 111.053034,422.829395 109.704286,420.542704 C108.354319,418.2524 106.375098,417.071124 103.988571,418.88699" id="Shape" fill="#FFF584" fill-rule="nonzero"></path>
                <g id="wing-left" transform="translate(0.000000, 165.000000)">
                    <g id="Clipped">
                        <mask id="mask-2" fill="white">
                            <use xlink:href="#path-1"></use>
                        </mask>
                        <g id="a"></g>
                        <path d="M150.853871,77.4064463 C150.853871,77.4064463 126.059484,15.5852562 61.5930968,2.44016529 C33.1899355,-3.35018182 15.7871613,7.83054545 9.48406452,19.3280661 C3.17851613,30.8304793 10.1423226,48.4449256 25.6401935,48.4449256 C-5.76496774,55.1636364 -10.3127097,91.8223802 23.1616129,99.2370579 C-4.11258065,126.421355 22.7472903,157.314215 69.4443871,144.545851 C116.141484,131.776264 150.853871,77.4064463 150.853871,77.4064463" id="Path" fill="#211B1F" fill-rule="nonzero" mask="url(#mask-2)"></path>
                    </g>
                </g>
                <g id="wing-right" transform="translate(284.000000, 165.000000)">
                    <g id="Clipped">
                        <mask id="mask-4" fill="white">
                            <use xlink:href="#path-3"></use>
                        </mask>
                        <g id="c"></g>
                        <path d="M0.361612903,77.4064463 C0.361612903,77.4064463 25.156,15.5852562 89.6223871,2.44016529 C118.025548,-3.35018182 135.428323,7.83054545 141.731419,19.3280661 C148.036968,30.8304793 141.073161,48.4449256 125.57529,48.4449256 C156.980452,55.1636364 161.528194,91.8223802 128.053871,99.2370579 C155.328065,126.421355 128.466968,157.314215 81.7710968,144.545851 C35.074,131.776264 0.361612903,77.4064463 0.361612903,77.4064463" id="Path" fill="#211B1F" fill-rule="nonzero" mask="url(#mask-4)"></path>
                    </g>
                </g>
                <g id="comb" transform="translate(173.000000, 0.000000)">
                    <g id="Clipped">
                        <mask id="mask-6" fill="white">
                            <use xlink:href="#path-5"></use>
                        </mask>
                        <g id="e"></g>
                        <path d="M55.9447778,81.1773235 C83.963,53.2258529 83.8921111,-2.89191176 53.2595556,0.2035 C32.9034444,2.25652941 41.0324444,37.6072059 41.0324444,37.6072059 C17.6855556,8.42294118 -13.3808889,37.2983971 6.91166667,57.5394118 C30.2658889,80.8367794 55.9447778,81.1761029 55.9447778,81.1761029" id="Path" fill="#EC1D24" fill-rule="nonzero" mask="url(#mask-6)"></path>
                    </g>
                </g>
                <path d="M218,376 C318.290088,376 353,347.511112 353,283.461236 C353,175.499548 270.030574,58 218,58 C165.968201,58 83,175.499548 83,283.461236 C83,347.511112 117.709912,376 218,376" id="body" fill="#41373D" fill-rule="nonzero"></path>
                <g id="eyes" transform="translate(154.000000, 119.000000)" fill-rule="nonzero">
                    <path d="M36.1102743,0 C48.3708867,0 59.1868435,6.10804761 65.7128704,15.4233391 C71.4927161,8.79397701 79.9881719,4.58439312 89.4866909,4.58439312 C106.89106,4.58439312 121,18.6488961 121,36 C121,53.3486621 106.89106,67.4168278 89.4866909,67.4168278 C79.9869487,67.4168278 71.4927161,63.2048021 65.7140936,56.5778818 C59.1868435,65.8931733 48.3708867,72 36.1102743,72 C16.1664426,72 0,55.8819819 0,36 C0,16.1180181 16.1664426,0 36.1102743,0" id="Path" fill="#FEFEFE"></path>
                    <path d="M40,34 C40,38.9703475 44.0561206,43 49.055271,43 C54.0568488,43 58.1129694,38.9703475 58.1129694,34 C58.1129694,29.0284449 54.0568488,25 49.055271,25 C44.0549069,25 40.0012137,29.0284449 40.0012137,34 M71.8882443,34 C71.8882443,38.9703475 75.9431512,43 80.944729,43 C85.9450931,43 90,38.9703475 90,34 C90,29.0284449 85.9450931,25 80.9459427,25 C75.9431512,25 71.8882443,29.0284449 71.8882443,34" id="Shape" fill="#231F20"></path>
                </g>
                <g id="beak" transform="translate(189.000000, 172.000000)" fill-rule="nonzero">
                    <path d="M0.831256954,29.7777515 C-2.2480287,41.0888152 3.58484893,47.9335462 12.4414962,50.2681925 C21.3006109,52.6040542 29.8278635,49.545072 32.9083829,38.2364389 C35.9864348,26.9241599 32.4531519,11.6414021 23.5965046,9.30432511 C14.7386236,6.9708941 3.91300998,18.4654725 0.831256954,29.7777515" id="Path" fill="#EC1D24"></path>
                    <path d="M64.0950613,30.7572028 C67.44672,43.1461283 61.0995936,50.6434946 51.4601737,53.1977984 C41.8207538,55.7570073 32.5412352,52.4093119 29.1883397,40.0203864 C25.8379178,27.6302345 29.6830495,10.8929837 39.3224694,8.33377478 C48.9618893,5.77579213 60.7434026,18.3695035 64.0950613,30.7572028" id="Path" fill="#EC1D24"></path>
                    <path d="M14,12.6575794 C14,29.2083951 27.6977721,41 31.0012101,41 C34.2998078,41 48,29.2083951 48,12.6575794 C48,3.43105903 40.3887821,0 31.0012101,0 C21.6112179,0 14,3.42984278 14,12.6575794" id="Path" fill="#FFCA05"></path>
                </g>
            </g>
        </g>
    </g>
</svg>