<?xml version="1.0" encoding="UTF-8"?>
<svg width="512px" height="512px" viewBox="0 0 512 512" version="1.1" xmlns="http://www.w3.org/2000/svg" xmlns:xlink="http://www.w3.org/1999/xlink">
    <!-- Generator: Sketch 60.1 (88133) - https://sketch.com -->
    <title>avatar-name</title>
    <desc>Created with Sketch.</desc>
    <g id="avatars" stroke="none" stroke-width="1" fill="none" fill-rule="evenodd">
        <g id="avatar-name">
            <rect id="Invisible-512-BG" fill-opacity="0.01" fill="#FFFFFF" x="0" y="0" width="512" height="512"></rect>
            <g id="Home" transform="translate(62.000000, 82.000000)" fill="#211B1F" fill-rule="nonzero">
                <path d="M194,77.5555556 L194,0 L0,0 L0,349 L388,349 L388,77.5555556 L194,77.5555556 Z M77.6,310.222222 L38.8,310.222222 L38.8,271.444444 L77.6,271.444444 L77.6,310.222222 Z M77.6,232.666667 L38.8,232.666667 L38.8,193.888889 L77.6,193.888889 L77.6,232.666667 Z M77.6,155.111111 L38.8,155.111111 L38.8,116.333333 L77.6,116.333333 L77.6,155.111111 Z M77.6,77.5555556 L38.8,77.5555556 L38.8,38.7777778 L77.6,38.7777778 L77.6,77.5555556 Z M155.2,310.222222 L116.4,310.222222 L116.4,271.444444 L155.2,271.444444 L155.2,310.222222 Z M155.2,232.666667 L116.4,232.666667 L116.4,193.888889 L155.2,193.888889 L155.2,232.666667 Z M155.2,155.111111 L116.4,155.111111 L116.4,116.333333 L155.2,116.333333 L155.2,155.111111 Z M155.2,77.5555556 L116.4,77.5555556 L116.4,38.7777778 L155.2,38.7777778 L155.2,77.5555556 Z M349.2,310.222222 L194,310.222222 L194,271.444444 L232.8,271.444444 L232.8,232.666667 L194,232.666667 L194,193.888889 L232.8,193.888889 L232.8,155.111111 L194,155.111111 L194,116.333333 L349.2,116.333333 L349.2,310.222222 Z M310.4,155.111111 L271.6,155.111111 L271.6,193.888889 L310.4,193.888889 L310.4,155.111111 Z M310.4,232.666667 L271.6,232.666667 L271.6,271.444444 L310.4,271.444444 L310.4,232.666667 Z" id="Shape"></path>
            </g>
        </g>
    </g>
</svg>